<svg viewBox="0 0 16 16" xmlns="http://www.w3.org/2000/svg" class="logo" fill="currentColor">
  <path d="m5,0l8,0a2,2 0 0 1 2,2l0,10a2,2 0 0 1 -2,2a2,2 0 0 1 -2,2l-8,0a2,2 0 0 1 -2,-2l1,0a1,1 0 0 0 1,1l8,0a1,1 0 0 0 1,-1l0,-10a1,1 0 0 0 -1,-1l-8,0a1,1 0 0 0 -1,1l-1,0a2,2 0 0 1 2,-2l8,0a2,2 0 0 1 2,2l0,9a1,1 0 0 0 1,-1l0,-10a1,1 0 0 0 -1,-1l-8,0a1,1 0 0 0 -1,1l-1,0a2,2 0 0 1 2,-2"/>
  <path d="m1,6l0,-0.5a0.5,0.5 0 0 1 1,0l0,0.5l0.5,0a0.5,0.5 0 0 1 0,1l-2,0a0.5,0.5 0 0 1 0,-1l0.5,0zm0,3l0,-0.5a0.5,0.5 0 0 1 1,0l0,0.5l0.5,0a0.5,0.5 0 0 1 0,1l-2,0a0.5,0.5 0 0 1 0,-1l0.5,0zm0,2.5l0,0.5l-0.5,0a0.5,0.5 0 0 0 0,1l2,0a0.5,0.5 0 0 0 0,-1l-0.5,0l0,-0.5a0.5,0.5 0 0 0 -1,0"/>
  <path d="m4,11.16856c0.11338,1.27704 1.15906,2.18329 2.75095,2.3005l0,0.93154l0.79901,0l0,-0.93154c1.73897,-0.13713 2.8176,-1.10161 2.8176,-2.52802c0,-1.21805 -0.72547,-1.92283 -2.2645,-2.31965l-0.5531,-0.14325l0,-2.91259c0.85953,0.08427 1.43944,0.54697 1.58576,1.23797l1.12612,0c-0.12717,-1.22571 -1.17974,-2.10515 -2.71188,-2.20244l0,-0.92541l-0.79901,0l0,0.94456c-1.48541,0.1762 -2.50504,1.12765 -2.50504,2.41771c0,1.11386 0.74002,1.90215 2.03851,2.23462l0.4673,0.1241l0,3.08802c-0.88021,-0.13023 -1.48617,-0.61285 -1.63249,-1.3161l-1.11923,0zm2.59774,-2.93864c-0.79901,-0.20148 -1.22571,-0.63201 -1.22571,-1.23797c0,-0.72317 0.53931,-1.25712 1.37892,-1.40037l0,2.67741l-0.15321,-0.0383l0,-0.00077zm1.21881,1.43408c0.98593,0.24744 1.41876,0.65805 1.41876,1.35517c0,0.84038 -0.63277,1.40037 -1.68535,1.48541l0,-2.90723l0.26659,0.06665z"/>
</svg>